<?xml version="1.0" encoding="utf-8"?><!DOCTYPE svg PUBLIC "-//W3C//DTD SVG 1.1//EN" "http://www.w3.org/Graphics/SVG/1.1/DTD/svg11.dtd"><svg version="1.1" id="Contours" xmlns="http://www.w3.org/2000/svg" xmlns:xlink="http://www.w3.org/1999/xlink" x="0px" y="0px" width="1987.004395px" height="1987.004395px" viewBox="0.000001 -0.000003 1987.004395 1562.771851" enable-background="new 0 0 1987.004395 1987.004395" xml:space="preserve" stroke="black" fill="none" stroke-linecap='round' stroke-linejoin='round'><path class="selected"  fill="#000000" opacity="1.000000" stroke="none" 
 	d="
M1967.849082 1184.162601 C1973.758506 1187.245853 1979.441245 1190.034671 1985.052695 1192.960208 C1985.904502 1193.404422 1986.569419 1194.415530 1986.997153 1195.317874 C1987.102866 1195.541141 1986.034873 1196.567630 1985.349326 1196.881839 C1976.386924 1200.990359 1967.294272 1204.827884 1958.434897 1209.145022 C1942.478110 1216.920901 1926.655845 1224.973270 1910.782065 1232.919681 C1910.225913 1233.197879 1909.733237 1233.599979 1909.191001 1233.909305 C1904.100303 1236.812503 1904.099082 1236.810306 1904.099082 1230.370853 C1904.099082 1223.537723 1903.985068 1216.701907 1904.151328 1209.872806 C1904.224326 1206.871585 1903.187583 1205.862063 1900.179648 1205.865848 C1849.181602 1205.931155 1798.183433 1205.941165 1747.185508 1205.848147 C1743.794639 1205.842044 1743.223105 1207.159671 1743.018394 1210.199222 C1741.784507 1228.529788 1740.659507 1246.885135 1736.109214 1264.805667 C1732.393027 1279.440311 1729.262534 1294.244754 1724.979575 1308.709476 C1718.968589 1329.010501 1710.517417 1348.413455 1700.406943 1367.006229 C1689.585898 1386.905887 1677.723105 1406.198123 1662.952964 1423.479007 C1652.686851 1435.490481 1642.860435 1448.067996 1631.317466 1458.750003 C1616.974570 1472.022830 1601.254844 1483.847659 1585.779868 1495.846683 C1568.723716 1509.071658 1549.706748 1519.142337 1530.209678 1528.212772 C1509.441855 1537.874393 1488.061729 1545.937015 1465.620566 1550.923465 C1455.406699 1553.192996 1445.304160 1556.114261 1434.994956 1557.763431 C1424.517783 1559.439090 1413.854331 1559.985110 1403.260825 1560.890506 C1394.213096 1561.663943 1385.144736 1562.836185 1376.093345 1562.769046 C1363.699058 1562.677127 1351.214072 1562.331790 1338.945518 1560.733035 C1321.337852 1558.438724 1303.845054 1555.503543 1286.495811 1551.196780 C1262.640220 1545.275149 1239.805015 1537.001590 1217.534629 1526.853519 C1195.293662 1516.718875 1174.753135 1503.658938 1155.155845 1489.247562 C1137.371909 1476.169681 1120.578940 1461.684451 1106.012290 1445.057864 C1094.114707 1431.477542 1082.672690 1417.342166 1072.507285 1402.443973 C1062.101279 1387.192874 1052.814902 1371.068118 1044.279258 1354.679568 C1034.652183 1336.194949 1027.421348 1316.577151 1022.191001 1296.364871 C1018.706748 1282.900027 1015.469810 1269.309329 1013.268394 1255.590945 C1010.857749 1240.567996 1009.889854 1225.317142 1007.916953 1210.214847 C1007.707480 1208.612063 1004.986716 1206.109988 1003.411643 1206.095340 C976.248374 1205.841312 949.081992 1205.886844 921.916465 1205.937015 C917.184287 1205.945804 915.528525 1208.173465 915.021201 1212.550296 C913.316611 1227.257327 913.014243 1242.109866 909.241050 1256.609256 C906.513389 1267.090945 905.612815 1278.044681 902.951194 1288.548221 C900.415732 1298.553714 896.653220 1308.248416 893.431724 1318.080081 C884.553672 1345.175418 871.319236 1370.218143 855.892905 1393.979129 C846.718833 1408.109622 835.773582 1421.135623 825.102561 1434.232791 C818.073630 1442.859866 810.706199 1451.390262 802.436851 1458.786014 C789.504416 1470.352298 776.074363 1481.456058 762.114463 1491.751224 C749.922751 1500.742313 737.048728 1508.950931 723.845481 1516.385257 C712.056235 1523.023318 699.564597 1528.506961 687.084800 1533.796756 C676.598472 1538.241580 665.839744 1542.210452 654.913047 1545.402347 C644.132896 1548.551395 633.000144 1550.504886 622.003745 1552.898929 C612.513572 1554.964847 603.035361 1557.124515 593.477256 1558.823001 C588.706931 1559.670657 583.774436 1559.729617 578.907004 1559.883670 C565.714927 1560.301517 552.514426 1560.943606 539.324851 1560.800418 C528.262168 1560.680301 517.144370 1560.111819 506.172446 1558.757938 C495.907981 1557.491336 485.786216 1555.013431 475.632468 1552.919314 C464.749808 1550.674686 453.706840 1548.911624 443.093497 1545.736087 C431.458396 1542.254886 420.121696 1537.675052 408.864646 1533.062137 C398.892631 1528.976077 388.924644 1524.710818 379.468009 1519.579105 C367.436576 1513.050418 355.514426 1506.154544 344.293265 1498.342410 C331.726432 1489.593509 319.586997 1480.114627 308.018485 1470.080813 C296.776847 1460.330325 285.724174 1450.142337 275.993156 1438.927737 C264.864402 1426.102054 255.091971 1412.072024 245.103843 1398.294437 C238.944877 1389.798831 232.875678 1381.129031 227.861091 1371.940066 C221.369529 1360.044559 215.360465 1347.800418 210.269263 1335.249759 C205.115546 1322.545169 200.987189 1309.387210 197.062079 1296.233279 C193.902946 1285.646243 191.493110 1274.817508 189.149344 1264.009524 C185.222632 1245.901858 182.671531 1227.629397 183.022620 1209.006351 C183.158088 1201.820315 182.005820 1194.606570 182.194282 1187.425296 C182.515311 1175.192874 182.626380 1162.863772 184.309485 1150.781985 C186.274375 1136.677371 189.811866 1122.790652 192.700812 1108.816409 C196.632010 1089.800174 203.197700 1071.585696 210.230948 1053.577762 C213.810721 1044.412112 218.423133 1035.594852 223.181464 1026.957645 C229.854774 1014.844363 236.422751 1002.577518 244.273948 991.233401 C253.618491 977.731570 263.931602 964.850345 274.478812 952.247439 C281.887656 943.394412 289.951194 934.971438 298.513541 927.231570 C309.245261 917.530398 320.677268 908.587649 332.004142 899.564944 C349.435020 885.679935 368.697837 874.707889 388.639487 864.916019 C405.281364 856.744388 422.404075 849.735355 440.352744 844.925540 C455.511863 840.863162 470.591544 836.405032 485.917411 833.100955 C495.283164 831.081790 505.029563 830.659549 514.637534 829.974856 C527.509666 829.057254 540.412681 828.069461 553.303245 828.058963 C565.692771 828.048831 578.162559 828.595950 590.450950 830.095462 C602.752158 831.596561 614.851279 834.698611 627.076926 836.886600 C649.639182 840.924686 671.041953 848.599124 692.076011 857.417605 C713.897056 866.565921 734.821799 877.464969 753.962668 891.420169 C766.613425 900.643680 778.699546 910.643313 791.000449 920.343509 C793.545249 922.350345 795.971458 924.515994 798.365745 926.703128 C801.997642 930.020755 804.827842 927.113040 807.202048 925.167605 C818.205283 916.151980 828.921470 906.787234 839.858054 897.688846 C852.847129 886.883060 865.998435 876.272098 878.999412 865.480228 C887.833152 858.147586 896.474448 850.583255 905.299766 843.240359 C918.543357 832.221316 931.925254 821.368167 945.147910 810.324222 C954.469199 802.538943 963.548728 794.464236 972.872458 786.682010 C983.863486 777.508243 995.058250 768.578738 1006.059470 759.416995 C1016.991416 750.312991 1027.725303 740.970950 1038.670615 731.883365 C1049.302573 723.055911 1060.152305 714.491092 1070.792441 705.673404 C1078.029014 699.676395 1084.994102 693.352237 1092.214683 687.335269 C1103.340537 678.063968 1114.588218 668.938907 1125.767661 659.731570 C1128.143027 657.775149 1130.420859 655.700503 1132.790488 653.736880 C1135.266318 651.685245 1133.981284 650.181583 1132.246421 648.532413 C1124.222739 640.904239 1115.645957 633.751163 1108.388267 625.448062 C1096.342368 611.666995 1084.203818 597.789004 1073.863853 582.742679 C1062.707847 566.508731 1052.761558 549.299075 1043.819663 531.734988 C1037.005820 518.350711 1032.040488 503.930667 1027.249351 489.637393 C1022.279258 474.810001 1018.215903 459.655459 1014.343467 444.493838 C1012.544761 437.451724 1011.898154 430.078799 1011.153525 422.812381 C1009.951133 411.081058 1009.158896 399.308353 1008.061729 387.565433 C1007.741172 384.134891 1005.120444 383.878787 1002.284202 383.884402 C977.618552 383.933230 952.952781 383.912601 928.287009 383.912601 C926.453757 383.912601 924.620444 383.902774 922.787253 383.914310 C916.667075 383.952762 916.560447 382.614993 915.927878 390.589114 C914.894614 403.615115 913.235129 416.636783 910.971702 429.507632 C908.535056 443.363467 905.704917 457.210696 901.967490 470.764163 C895.100242 495.668094 885.570640 519.685916 872.902976 542.174625 C863.928245 558.107364 853.768394 573.482303 842.941794 588.228335 C833.762168 600.731082 823.164390 612.245792 812.671897 623.720096 C791.910117 646.424808 768.023948 665.379886 741.502463 680.956424 C729.331138 688.104739 717.359214 695.790225 704.569785 701.643252 C684.216819 710.957706 663.291282 719.063174 641.301841 723.895389 C627.231956 726.987186 613.179526 730.209598 599.013206 732.791202 C591.581565 734.145450 583.933494 734.525638 576.361899 734.850345 C563.343467 735.408694 550.282920 736.236758 537.287253 735.733218 C523.475791 735.197940 509.700828 733.411197 495.942771 731.876529 C470.824668 729.074710 446.627799 722.389651 422.903953 713.894839 C403.090110 706.799991 383.864585 698.370547 365.967338 687.214664 C352.686912 678.936648 339.333365 670.715457 326.590842 661.655398 C317.535483 655.217044 309.202537 647.686526 300.990470 640.159854 C293.033073 632.866519 285.418387 625.164188 278.048118 617.272647 C262.126029 600.224795 247.921866 581.822208 236.133826 561.654849 C229.404517 550.142093 222.345725 538.747439 216.640235 526.727603 C207.237968 506.919742 199.008063 486.582217 194.085242 465.079593 C191.160743 452.305484 187.568168 439.657596 185.267386 426.775821 C183.433127 416.506168 183.105140 405.967898 182.095420 395.550174 C181.785514 392.352786 181.568427 389.135135 181.004264 385.981326 C180.861655 385.184207 179.648688 384.288211 178.745978 383.993106 C177.691978 383.648563 176.439063 383.912601 175.272437 383.912601 C119.107871 383.912601 62.943313 383.912967 6.778752 383.912112 C0.512031 383.911990 0.101388 383.492007 0.099286 377.128238 C0.098132 373.628360 0.340272 370.107608 0.038943 366.633853 C-0.350844 362.140445 2.228431 361.098086 5.847426 360.918704 C6.678685 360.877505 7.513730 360.912601 8.347032 360.912601 C64.011611 360.912601 119.676337 360.859439 175.340491 361.012637 C179.842109 361.025027 181.003181 359.972903 181.282706 355.303592 C182.099525 341.658877 183.696555 328.057681 185.115867 314.452823 C187.075034 295.672977 191.747687 277.454867 197.149558 259.439029 C204.305564 235.572940 214.217048 212.787936 226.195930 190.992313 C237.062537 171.220401 249.368003 152.296176 264.309958 135.291415 C274.905540 123.233096 285.247825 110.819186 296.939384 99.885898 C318.435630 79.783755 342.110587 62.449893 367.781455 47.838809 C392.065116 34.017276 417.656150 23.330127 444.333518 15.401950 C458.088035 11.314258 472.298545 8.593219 486.445762 6.048099 C497.605063 4.040500 508.956626 2.931445 520.270164 1.996753 C532.796470 0.961871 545.436423 -0.509900 557.918845 0.175662 C575.313804 1.131045 592.741050 3.147800 609.909080 6.125644 C627.418479 9.162707 644.756797 13.447162 661.924949 18.091403 C671.838767 20.773273 681.448997 24.838122 690.870750 29.014011 C703.131309 34.448123 715.534507 39.826694 727.031516 46.652133 C742.393149 55.771854 757.097678 66.035342 771.802756 76.214450 C788.930930 88.070895 804.044028 102.351108 818.119346 117.601321 C834.668906 135.532260 849.542197 154.844302 862.077903 175.849521 C867.489646 184.917728 873.527000 193.745700 877.767661 203.350589 C885.474631 220.806186 892.783896 238.513919 898.872886 256.583621 C903.973960 271.721744 907.514487 287.434878 910.935874 303.070621 C912.844016 311.790652 913.226401 320.860538 914.063010 329.794559 C914.894004 338.669376 915.224448 347.596500 916.285911 356.439334 C916.482749 358.079898 919.096091 360.708804 920.614158 360.722842 C948.610679 360.981937 976.610435 360.879520 1004.609153 360.960513 C1007.623374 360.969241 1008.015830 359.538577 1008.150962 357.026797 C1008.692100 346.963199 1008.723716 336.800601 1010.260581 326.878604 C1012.736777 310.894168 1015.515098 294.882693 1019.506431 279.224338 C1025.382041 256.173648 1033.633994 233.860507 1044.117393 212.450626 C1053.524375 193.239047 1064.069907 174.648624 1077.047935 157.623691 C1086.122764 145.719302 1095.710898 134.161197 1105.698203 123.011478 C1114.006431 113.736301 1122.581016 104.484897 1132.197104 96.645053 C1147.566367 84.114596 1163.463584 72.112308 1179.963218 61.126529 C1192.290122 52.919101 1205.678184 46.174319 1219.021689 39.654300 C1241.436606 28.701816 1264.920493 20.426791 1289.285972 15.020114 C1302.518516 12.083789 1316.003745 10.295978 1329.358970 7.901294 C1351.150229 3.993960 1373.169028 4.609515 1395.111655 5.102100 C1406.249839 5.352130 1417.393271 7.263812 1428.444663 8.995883 C1441.034141 10.969028 1453.798545 12.625629 1465.991538 16.138766 C1483.759360 21.258090 1501.290244 27.383945 1518.528892 34.091769 C1530.708579 38.831119 1542.724937 44.426395 1553.938193 51.109225 C1569.823569 60.576419 1585.288779 70.870181 1600.202231 81.807803 C1611.912192 90.395999 1623.001792 99.988864 1633.466636 110.070071 C1643.206626 119.453036 1652.249351 129.677463 1660.697104 140.252139 C1669.662314 151.474704 1678.031089 163.245212 1685.819053 175.319125 C1696.477988 191.844089 1705.528525 209.234500 1713.378257 227.371005 C1721.395591 245.894321 1727.417686 264.997165 1732.761191 284.317813 C1735.857139 295.512393 1737.006553 307.241275 1739.108237 318.715762 C1743.342368 341.833621 1743.737021 365.201541 1742.938682 388.552371 C1742.506431 401.197085 1740.545859 413.798892 1739.074180 426.396609 C1736.524375 448.223514 1731.054771 469.409488 1724.035361 490.162173 C1714.180259 519.298953 1701.110190 546.897464 1684.030234 572.600894 C1672.122520 590.520633 1658.957114 607.322391 1644.488486 623.263919 C1630.977256 638.150821 1615.804038 650.959109 1600.199790 663.492251 C1577.849448 681.443851 1553.308188 695.774478 1527.469810 707.709170 C1506.284629 717.494754 1484.225303 725.336795 1461.181724 729.924197 C1448.107505 732.527042 1435.103965 735.519839 1421.975913 737.804751 C1414.690391 739.072757 1407.226035 739.472659 1399.821128 739.858096 C1389.304038 740.405582 1378.719687 741.365543 1368.250449 740.729129 C1352.398765 739.765201 1336.617271 737.616763 1320.813315 735.903445 C1299.565391 733.599979 1278.956626 728.469852 1258.926230 721.150821 C1245.913291 716.395938 1233.073447 711.149600 1220.256431 705.879703 C1202.501914 698.579654 1186.258506 688.519046 1170.357383 677.891360 C1165.891807 674.906680 1161.557700 671.718997 1157.240806 668.519961 C1154.454917 666.455569 1151.701377 666.251102 1149.060630 668.486209 C1139.790122 676.332828 1130.671348 684.360660 1121.334922 692.127383 C1110.711509 700.964725 1099.865317 709.533938 1089.213828 718.338077 C1082.225547 724.114383 1075.479087 730.182742 1068.503013 735.974246 C1057.487510 745.119083 1046.310874 754.069949 1035.314536 763.237430 C1026.113853 770.907962 1017.134604 778.843814 1007.945640 786.528506 C998.815085 794.164188 989.496482 801.574832 980.350120 809.192142 C971.528159 816.539188 962.875876 824.090091 954.049399 831.431644 C942.914939 840.692752 931.658225 849.806766 920.495688 859.034305 C914.147056 864.282352 907.900962 869.654178 901.573508 874.927981 C891.792808 883.080203 881.948020 891.155765 872.193931 899.339603 C863.271445 906.825687 854.485435 914.474856 845.540671 921.933841 C838.635398 927.692142 831.663291 933.378055 824.555076 938.881839 C820.386802 942.109256 820.244163 948.418582 824.052451 953.441287 C835.953574 969.137454 848.295432 984.555789 859.234275 1000.906131 C866.943687 1012.429446 873.173057 1025.046634 879.103232 1037.627933 C885.398276 1050.983279 891.385947 1064.600955 895.997458 1078.601565 C901.237632 1094.510623 905.411765 1110.841800 908.890708 1127.235355 C911.306541 1138.619510 911.499534 1150.458499 913.209250 1162.016727 C914.088706 1167.962283 916.575522 1173.704227 914.232017 1179.840457 C914.184226 1179.965457 916.072715 1181.131961 917.143760 1181.318118 C919.246238 1181.683597 921.415427 1181.644046 923.545798 1181.874881 C926.240195 1182.166995 928.922385 1182.857425 931.611594 1182.866458 C955.443748 1182.945926 979.276877 1182.827029 1003.108115 1182.998172 C1006.996299 1183.026126 1007.906333 1181.946048 1008.249961 1178.037967 C1009.540244 1163.362308 1011.481895 1148.745242 1013.087607 1134.096194 C1015.604819 1111.132327 1022.416709 1089.253909 1030.198691 1067.677737 C1033.954429 1057.264773 1038.670615 1047.190799 1043.119224 1037.036868 C1051.767417 1017.297732 1063.241782 999.134280 1075.327720 981.417239 C1081.733115 972.027713 1089.335532 963.411380 1096.817954 954.811648 C1104.787314 945.652347 1112.770713 936.411258 1121.601401 928.114139 C1141.041587 909.848758 1161.817466 893.188357 1185.099448 879.951541 C1196.267295 873.602176 1207.485190 867.289798 1219.006797 861.624515 C1241.415488 850.605838 1264.890708 842.369876 1289.278159 836.988040 C1303.247886 833.905276 1317.284751 830.359012 1331.469443 829.197513 C1352.936484 827.439822 1374.562949 826.989505 1396.113608 827.139041 C1408.569541 827.225345 1421.186362 828.689944 1433.415366 831.121341 C1451.733237 834.763187 1469.918540 839.289432 1487.894004 844.379642 C1508.709312 850.274051 1528.785239 858.588382 1547.541221 869.234988 C1565.492148 879.424441 1582.680991 891.093631 1599.482993 903.120730 C1610.258262 910.833743 1619.846641 920.238528 1629.755698 929.120853 C1652.158408 949.202762 1670.360312 972.866214 1686.512656 998.033816 C1699.803794 1018.743411 1711.241294 1040.542483 1719.072471 1064.013187 C1723.717246 1077.933719 1728.609214 1091.803958 1732.433799 1105.955447 C1735.419517 1117.002688 1737.259849 1128.397952 1738.998618 1139.732181 C1740.483237 1149.409915 1741.106284 1159.220218 1742.095176 1168.973392 C1742.452598 1172.499393 1742.825156 1176.025760 1743.082480 1179.559695 C1743.339072 1183.085086 1745.325645 1183.755862 1748.390830 1183.162845 C1749.821250 1182.885867 1751.324424 1182.921878 1752.794639 1182.921512 C1801.126182 1182.910647 1849.457969 1182.840457 1897.788901 1183.023685 C1902.655234 1183.042117 1904.654746 1182.098636 1904.210532 1176.834842 C1903.721641 1171.042972 1904.095420 1165.177981 1904.100059 1159.344852 C1904.104941 1153.099734 1904.409507 1152.812503 1910.312705 1155.675296 C1921.005698 1160.861209 1931.586997 1166.277103 1942.242026 1171.541995 C1950.673301 1175.708011 1959.145225 1179.791995 1967.849082 1184.162601 M876.099082 1060.412601 C874.685142 1057.332034 873.401206 1054.183597 871.834983 1051.182620 C864.967612 1038.024051 858.380881 1024.700931 851.016379 1011.824100 C839.198142 991.160159 824.781333 972.277835 808.463157 955.014041 C798.079368 944.028567 786.957908 933.628055 775.354331 923.938846 C763.428489 913.980472 750.868674 904.671512 737.919150 896.084476 C727.890281 889.434329 717.038901 883.908938 706.178550 878.658328 C693.711204 872.630618 681.045554 866.881595 668.080771 862.044314 C647.446738 854.345584 626.238425 848.492190 604.266379 845.931277 C589.137229 844.167728 574.020530 842.063724 558.835593 841.095706 C548.870383 840.460330 538.766196 841.229129 528.773154 842.001346 C516.299033 842.965457 503.757224 843.912112 491.459800 846.084476 C476.714408 848.689578 462.106406 852.234256 447.602042 856.000369 C429.643271 860.663455 412.412253 867.523074 395.842155 875.817386 C384.763236 881.363040 374.116172 887.780765 363.343619 893.927005 C342.580619 905.773074 323.953300 920.574832 306.784476 937.020389 C294.614799 948.677249 283.354484 961.370242 272.492606 974.277591 C264.363517 983.937625 257.020682 994.361453 250.240958 1005.025760 C243.689231 1015.331302 237.747230 1026.116946 232.549460 1037.167728 C225.871131 1051.366458 219.633887 1065.831912 214.241736 1080.561526 C207.362845 1099.352298 203.199393 1118.874759 199.882270 1138.663699 C197.071998 1155.429080 195.786216 1172.258304 195.297919 1189.126346 C194.944968 1201.318606 196.236472 1213.579227 197.165687 1225.781009 C197.821403 1234.391605 198.493537 1243.079593 200.230338 1251.512210 C203.437842 1267.085208 207.325156 1282.522586 211.124717 1297.968387 C216.544456 1320.000369 226.175590 1340.429080 236.436378 1360.448367 C243.032737 1373.317996 250.914023 1385.662967 259.384055 1397.402713 C268.768302 1410.409671 279.089683 1422.805423 289.744803 1434.808841 C297.290458 1443.309329 305.689933 1451.164920 314.389731 1458.500125 C326.105155 1468.378177 338.223319 1477.827273 350.628928 1486.825809 C366.760215 1498.527103 384.036918 1508.401980 402.561545 1515.868045 C417.986045 1522.084720 433.252646 1528.998172 449.166770 1533.610110 C465.386863 1538.310916 482.228171 1541.110599 498.954490 1543.746341 C512.604453 1545.897098 526.461509 1547.087161 540.272483 1547.746951 C550.759482 1548.248050 561.334495 1547.502811 571.840720 1546.841434 C582.611655 1546.163211 593.466758 1545.597415 604.066428 1543.737063 C616.951194 1541.475711 629.615806 1537.947635 642.360618 1534.904422 C661.360923 1530.367435 679.554404 1523.440311 697.180869 1515.196292 C721.460654 1503.840335 744.213218 1489.972659 765.391685 1473.358279 C782.709739 1459.772708 798.432334 1444.704593 813.169333 1428.436526 C827.323752 1412.811893 839.627463 1395.900516 850.631003 1377.948245 C862.953452 1357.844241 873.298484 1336.781619 880.994346 1314.536136 C888.127952 1293.916141 894.670554 1273.068851 897.108787 1251.212039 C898.724082 1236.732425 901.402061 1222.292361 901.838401 1207.781497 C902.316794 1191.870853 901.325339 1175.849734 899.922446 1159.969730 C898.796287 1147.223025 896.167380 1134.604129 894.083640 1121.948489 C890.637534 1101.018802 883.824668 1081.077273 876.099082 1060.412601 M821.599143 144.912570 C819.597983 142.578067 817.734702 140.106601 815.573142 137.931430 C801.752585 124.023074 788.640403 109.272708 773.770835 96.586001 C760.520957 85.281161 745.524436 75.945621 730.899375 66.349734 C711.171287 53.405612 689.713523 43.808505 667.513633 35.971133 C648.394248 29.221255 628.982200 23.447879 608.756003 20.895724 C596.269492 19.320148 583.844077 17.078769 571.316001 16.072177 C561.433066 15.278140 551.434653 15.992129 541.488914 15.894351 C525.742515 15.739551 510.086570 16.653537 494.655784 19.938052 C477.523826 23.584643 460.108573 26.356784 443.399131 31.428683 C415.992209 39.747623 390.030265 51.565097 365.540458 66.755496 C339.113608 83.147372 314.685203 101.808444 293.746909 124.839755 C284.909049 134.561038 276.243644 144.464206 267.961051 154.659366 C255.080985 170.513583 244.526481 187.950595 235.165168 206.051395 C224.509910 226.654178 216.317390 248.223971 209.770957 270.537601 C202.292747 296.027103 197.567374 321.984317 196.393500 348.360477 C195.548438 367.348453 196.742408 386.515628 198.328010 405.494144 C199.494559 419.456973 202.656211 433.263553 205.123572 447.104983 C209.308372 470.580997 217.452430 492.882571 227.347571 514.377261 C238.929832 539.536868 253.137107 563.231753 270.497001 585.056705 C283.668815 601.616458 297.956016 616.924930 313.646445 631.078250 C329.545371 645.419559 346.634025 657.996646 364.819816 669.294681 C386.612144 682.833255 409.704520 693.451419 433.842093 701.853580 C452.434592 708.325381 471.385032 713.549197 491.015494 715.919986 C504.495078 717.548038 517.927573 720.016055 531.452048 720.694278 C544.762473 721.361819 558.187949 720.646243 571.515403 719.794620 C583.664207 719.018436 595.873252 717.925296 607.831199 715.741885 C623.017539 712.968997 638.187095 709.668277 652.987083 705.314395 C676.876487 698.286502 699.529929 688.114261 721.304404 675.954349 C744.222983 663.155704 765.558738 648.074161 784.843589 630.389468 C800.412864 616.112063 815.028159 600.819766 827.859275 583.840152 C843.095847 563.677249 856.447654 542.528812 867.209983 519.617313 C877.512168 497.685245 885.338279 475.061099 891.329246 451.572635 C896.453513 431.482181 899.926108 411.141421 900.749167 390.648440 C901.632468 368.655704 900.563315 346.488650 898.806907 324.520816 C897.712668 310.834415 893.896567 297.348819 891.069846 283.821597 C886.238059 260.698794 878.033042 238.620486 867.817527 217.482852 C859.933127 201.168521 850.282126 185.656009 840.689963 170.239017 C835.248679 161.493381 828.344443 153.657962 821.599143 144.912570 M1686.599082 205.912570 C1684.099082 201.615909 1681.546104 197.349002 1679.107993 193.017520 C1666.956870 171.430575 1651.781455 152.033633 1635.263022 133.726321 C1620.116660 116.939548 1603.197104 101.905337 1585.009238 88.517581 C1563.925010 72.997745 1541.383018 59.826938 1517.229941 49.467105 C1493.929526 39.473025 1470.170493 31.007907 1445.068687 26.981540 C1428.261924 24.285693 1411.410972 21.371280 1394.465781 20.183383 C1380.364585 19.194858 1366.072227 20.173434 1351.910850 21.038089 C1340.093711 21.759570 1328.217612 22.905810 1316.594932 25.079074 C1301.270835 27.944461 1285.984580 31.359927 1271.011313 35.679782 C1243.879722 43.507449 1218.439536 55.333865 1194.180137 69.849795 C1167.676841 85.708407 1143.588096 104.500644 1122.511069 127.070773 C1114.509849 135.638919 1106.772666 144.465945 1099.174888 153.396060 C1085.158530 169.870395 1073.666831 188.126681 1063.576621 207.145846 C1052.870811 227.325290 1044.439048 248.481631 1037.767661 270.456332 C1031.161216 292.216556 1026.869590 314.343448 1024.303184 336.786258 C1022.840781 349.574954 1023.366660 362.597232 1023.115317 375.516605 C1022.779990 392.752811 1023.700889 409.911929 1027.122764 426.849246 C1030.007651 441.128299 1032.394004 455.559451 1036.248984 469.580203 C1043.766318 496.921329 1054.749595 522.894961 1069.041831 547.476382 C1080.120688 566.530826 1092.019858 585.030215 1107.055137 601.157596 C1120.757896 615.856082 1134.766440 630.388919 1149.775718 643.715945 C1164.372886 656.676761 1180.816489 667.344180 1197.742148 677.292422 C1216.616782 688.386294 1236.291953 697.550784 1256.843223 704.847659 C1278.060996 712.381168 1299.704185 718.409366 1322.185508 720.913150 C1334.132163 722.243716 1346.054160 723.903567 1358.033408 724.798831 C1366.044883 725.397525 1374.147422 725.164310 1382.191367 724.850162 C1392.757407 724.437503 1403.373740 724.112491 1413.845664 722.782535 C1428.110435 720.970767 1442.359214 718.726993 1456.436484 715.808292 C1482.441978 710.416446 1507.129722 700.946170 1530.950522 689.379886 C1541.538047 684.239139 1551.511191 677.823550 1561.714194 671.902286 C1581.713096 660.296329 1599.708335 646.015872 1616.339072 630.050601 C1625.159751 621.583133 1633.717856 612.782840 1641.751060 603.571536 C1649.407676 594.792117 1656.456626 585.451724 1663.370200 576.061587 C1679.476523 554.185550 1692.517173 530.529178 1702.179404 505.164615 C1707.779502 490.463748 1712.735190 475.457584 1716.916343 460.295230 C1720.164634 448.515323 1722.393882 436.361392 1723.941733 424.229007 C1725.923179 408.698978 1727.173911 393.043765 1727.948691 377.403384 C1728.426963 367.749332 1727.578452 358.014407 1727.055015 348.330386 C1726.600791 339.929263 1726.345054 331.452090 1724.965781 323.181277 C1722.801597 310.203494 1720.509116 297.159305 1716.912070 284.530276 C1712.352134 268.520999 1706.823813 252.751803 1700.962241 237.161410 C1697.013633 226.658938 1691.765830 216.645022 1686.599082 205.912570 M1724.099082 1137.412601 C1723.432456 1135.022830 1722.691489 1132.650760 1722.111411 1130.240237 C1718.865439 1116.749148 1716.241050 1103.076785 1712.314902 1089.788211 C1704.538779 1063.469119 1693.098594 1038.717898 1679.182944 1015.025638 C1666.899375 994.112430 1652.643760 974.672855 1636.327231 956.860843 C1621.304893 940.461673 1604.853721 925.505008 1586.949912 912.150638 C1565.234580 895.953006 1542.092490 882.365481 1517.269492 871.527225 C1496.775474 862.579227 1475.689902 855.782596 1453.872642 850.680789 C1434.596763 846.173343 1415.151328 843.330569 1395.541343 842.153934 C1380.754966 841.266849 1365.812827 842.172366 1350.984458 843.040530 C1339.001670 843.742190 1326.973838 844.957156 1315.168662 847.074832 C1301.359946 849.551883 1287.588462 852.629153 1274.125449 856.557986 C1247.814902 864.235843 1222.792808 875.066775 1199.018760 888.846438 C1178.381553 900.808230 1159.004844 914.527957 1141.341758 930.444217 C1129.947104 940.711917 1119.598838 952.179324 1109.155723 963.455447 C1095.521567 978.177005 1084.184897 994.615237 1073.677573 1011.708133 C1061.152183 1032.083865 1051.011191 1053.511478 1043.088584 1076.042239 C1035.665488 1097.152469 1029.638267 1118.603397 1027.115439 1140.909305 C1025.690146 1153.511355 1024.165977 1166.111819 1023.201133 1178.752444 C1022.640464 1186.098880 1022.969199 1193.526248 1023.136558 1200.911746 C1023.295981 1207.943118 1023.480552 1214.995486 1024.164390 1221.988772 C1025.253379 1233.125125 1026.207847 1244.323489 1028.239219 1255.307010 C1030.821616 1269.268802 1033.751060 1283.238650 1037.731162 1296.854129 C1044.804038 1321.049563 1054.690024 1344.156009 1067.076133 1366.172000 C1079.444663 1388.156619 1093.768271 1408.798221 1110.516562 1427.606448 C1120.454795 1438.766849 1131.477988 1448.973270 1142.197715 1459.419559 C1146.358237 1463.474002 1150.776694 1467.361331 1155.512900 1470.708865 C1167.970542 1479.513675 1180.502769 1488.234134 1193.306357 1496.523196 C1213.112998 1509.346194 1234.535972 1519.004031 1256.724814 1526.823245 C1275.988486 1533.611575 1295.655234 1538.910159 1315.945029 1542.072879 C1332.868491 1544.710696 1349.738120 1547.161502 1366.890464 1546.886233 C1379.252524 1546.687991 1391.618247 1546.408694 1403.968223 1545.852298 C1411.538901 1545.511233 1419.183433 1545.134036 1426.616050 1543.786868 C1438.760459 1541.585574 1450.747275 1538.524539 1462.821494 1535.924075 C1487.768882 1530.551028 1511.394980 1521.338382 1533.930503 1509.706546 C1549.397178 1501.723147 1564.258628 1492.379886 1578.649619 1482.558719 C1590.655967 1474.365115 1602.328696 1465.368899 1612.805625 1455.326663 C1626.294639 1442.397098 1638.763877 1428.349246 1651.083457 1414.268069 C1664.907310 1398.467166 1676.013145 1380.652347 1685.987144 1362.260867 C1697.695273 1340.671878 1707.092490 1317.995853 1714.025596 1294.408328 C1720.659873 1271.837527 1725.084922 1248.741336 1726.920737 1225.313968 C1728.183921 1209.193973 1727.766807 1192.942386 1728.096396 1176.749637 C1728.116782 1175.750125 1728.194297 1174.739383 1728.084434 1173.751712 C1726.773765 1161.970096 1725.432456 1150.191775 1724.099082 1137.412601 z"/><path class="selected"  fill="#000000" opacity="1.000000" stroke="none" 
 	d="
M508.099082 1210.912601 C506.441062 1211.070682 504.860374 1210.803226 504.198752 1211.460696 C501.432029 1214.210208 498.741538 1217.087649 496.405845 1220.204837 C494.109458 1223.269412 492.790946 1226.630862 492.976829 1230.818240 C493.375480 1239.798099 492.949729 1248.811404 493.163291 1257.803958 C493.267081 1262.174808 491.852714 1264.195926 487.241904 1263.970340 C482.089011 1263.718265 476.913199 1263.976321 471.749381 1263.890506 C468.222648 1263.832034 465.755729 1260.592044 466.368735 1257.129642 C466.673606 1255.407596 467.066794 1253.664676 467.068595 1251.930911 C467.108542 1213.941409 467.099082 1175.951907 467.099082 1137.962405 C467.099082 1127.912601 467.099052 1127.912601 477.593833 1127.912601 C481.259482 1127.912601 485.013083 1127.445926 488.552970 1128.113162 C490.274436 1128.437625 492.870292 1130.855105 492.902213 1132.370853 C493.225120 1147.693118 493.135947 1163.025149 493.054771 1178.353763 C493.043998 1180.383426 492.209037 1182.407596 492.186973 1184.438968 C492.174674 1185.568973 493.053336 1186.708621 493.530479 1187.843997 C494.570640 1187.182986 495.941184 1186.754520 496.597434 1185.823001 C500.851401 1179.784183 504.683005 1173.432254 509.158164 1167.568362 C516.930686 1157.384036 525.070457 1147.479983 533.052756 1137.455569 C533.747947 1136.582522 534.416526 1135.688235 535.099265 1134.805057 C538.370383 1130.573978 541.628684 1127.113772 548.027000 1127.738284 C555.619224 1128.479373 563.339744 1127.864383 571.002769 1127.972293 C571.989402 1127.986087 572.964622 1128.809939 573.945151 1129.258670 C573.340903 1129.965579 572.759971 1130.694095 572.128623 1131.375857 C567.796714 1136.054690 563.292747 1140.585818 559.153281 1145.428592 C552.882407 1152.764651 546.862876 1160.315433 540.736472 1167.775149 C536.141807 1173.369876 531.777122 1179.179202 526.848716 1184.462649 C524.608604 1186.864139 525.005027 1188.584598 526.435996 1190.733401 C531.831077 1198.835208 537.260032 1206.914554 542.684775 1214.996585 C552.223594 1229.208011 561.765037 1243.417850 571.315208 1257.621585 C572.546287 1259.452518 573.836326 1261.243655 575.099082 1263.053348 C572.621909 1263.339725 570.148643 1263.825076 567.666831 1263.873172 C561.504172 1263.992679 555.326316 1263.685428 549.176658 1263.992435 C545.053733 1264.198245 542.179099 1262.336673 540.154014 1259.316409 C531.690391 1246.693362 523.419883 1233.940555 515.107383 1221.216556 C512.885764 1217.816043 510.765769 1214.349002 508.099082 1210.912601 z"/><path class="selected"  fill="#000000" opacity="1.000000" stroke="none" 
 	d="
M751.099082 1172.912601 C750.126609 1185.106692 747.877830 1196.420413 738.685447 1204.714114 C731.011497 1211.637942 721.739036 1215.347293 711.368491 1215.882938 C702.185508 1216.357425 692.991416 1216.715213 683.798362 1216.839603 C680.536216 1216.883792 680.035239 1218.332645 680.057761 1221.087649 C680.154624 1232.913699 680.025657 1244.741824 680.131125 1256.567874 C680.181174 1262.177859 678.740989 1264.588260 672.976951 1264.002688 C668.525352 1263.550540 663.975486 1264.143191 659.498191 1263.842166 C655.659812 1263.584231 653.014670 1262.033206 653.029807 1257.262332 C653.153037 1218.450320 653.099082 1179.637820 653.099082 1140.825442 C653.099082 1137.770022 652.645835 1134.614871 653.287742 1131.700809 C653.615195 1130.214603 655.893027 1128.095706 657.315696 1128.074832 C674.469504 1127.824100 691.643882 1127.466556 708.780112 1128.068484 C720.310081 1128.473514 731.294089 1131.403445 739.474082 1140.733279 C745.817954 1147.968997 749.517356 1156.197269 750.127524 1165.828006 C750.267356 1168.034549 750.765769 1170.218387 751.099082 1172.912601 M680.099082 1175.412601 C680.099082 1179.898318 680.331931 1184.400027 680.027854 1188.864993 C679.768516 1192.672610 680.817161 1194.379275 684.911826 1193.963260 C690.235312 1193.422488 695.592124 1193.054324 700.941123 1192.949832 C714.955771 1192.675540 724.032065 1184.204227 723.266501 1169.947269 C722.806418 1161.380374 714.853843 1153.233157 707.464011 1152.089969 C700.084739 1150.948245 692.482444 1151.251346 684.978416 1150.910281 C681.421226 1150.748538 680.022544 1152.528079 680.073508 1155.971316 C680.164451 1162.117190 680.099082 1168.265384 680.099082 1175.412601 z"/><path class="selected"  fill="#000000" opacity="1.000000" stroke="none" 
 	d="
M370.099082 1259.912601 C361.858939 1256.544925 354.726951 1252.355105 348.723685 1246.223636 C346.526572 1243.979373 347.007621 1242.077151 348.281364 1240.360232 C351.349631 1236.224490 354.930289 1232.471927 358.062034 1228.379520 C360.611960 1225.047366 363.218223 1225.422977 365.658317 1228.043338 C371.800376 1234.639407 379.562797 1238.313968 388.082999 1240.285159 C395.394645 1241.976565 403.022758 1241.786258 409.504569 1237.777835 C417.118003 1233.069705 417.763724 1219.429935 409.132834 1214.999881 C402.436240 1211.562991 395.406241 1208.735721 388.398948 1205.953616 C377.684043 1201.699466 367.011771 1197.415530 359.177482 1188.449100 C354.290702 1182.856082 351.600364 1176.475101 350.946708 1168.827640 C349.929648 1156.929080 353.453727 1146.927005 361.839500 1138.823001 C368.220786 1132.656253 376.092124 1128.788333 384.851890 1126.909061 C395.810081 1124.558108 406.534629 1126.174563 416.700187 1130.089236 C423.573661 1132.736209 429.898887 1136.901370 436.217368 1140.796268 C437.201896 1141.403079 437.689475 1144.750491 436.951926 1145.881839 C433.745536 1150.799563 430.007621 1155.371341 426.448661 1160.057986 C424.690391 1162.373172 423.280509 1162.221194 420.837821 1160.335208 C412.753135 1154.093875 403.860557 1149.572757 393.204459 1149.903689 C385.478904 1150.143680 381.357627 1153.188235 378.901328 1160.610355 C377.344749 1165.313968 379.339896 1171.610843 383.717124 1173.839847 C390.161368 1177.121341 396.908500 1179.801883 403.430686 1182.937991 C413.603782 1187.829837 425.096122 1190.356204 433.350730 1198.738895 C441.577384 1207.093265 444.079948 1216.973636 442.361899 1228.790042 C441.091880 1237.525027 438.146659 1244.881839 432.293387 1251.165652 C425.364890 1258.603763 416.093375 1261.701541 406.583823 1263.829837 C395.550742 1266.298953 384.573081 1264.811404 373.785728 1261.865237 C372.631797 1261.550174 371.657004 1260.579227 370.099082 1259.912601 z"/><path class="selected"  fill="#000000" opacity="1.000000" stroke="none" 
 	d="
M608.099082 1127.912601 C623.828879 1127.955325 622.084312 1126.198855 622.092246 1141.341556 C622.112632 1180.120853 622.043601 1218.900394 622.171287 1257.679324 C622.186729 1262.369754 620.585776 1264.233646 615.879661 1263.971805 C611.067954 1263.704227 606.229453 1263.879275 601.403220 1263.922610 C597.163169 1263.960574 595.088279 1261.955081 595.089866 1257.681033 C595.105186 1216.238772 595.128196 1174.796512 595.052939 1133.354373 C595.045615 1129.323489 596.606223 1127.613162 600.610679 1127.884158 C602.930137 1128.041263 605.268943 1127.912601 608.099082 1127.912601 z"/><path class="selected"  fill="#000000" opacity="1.000000" stroke="none" 
 	d="
M727.349082 378.162601 C724.456016 392.578555 718.725547 405.023196 704.589744 410.693118 C696.572715 413.908755 687.731956 415.259463 679.148276 416.826053 C668.070579 418.847964 656.867942 420.176211 645.740256 421.936648 C638.106284 423.144412 630.507712 424.576541 622.894248 425.913272 C613.417808 427.577090 603.957053 429.336978 594.461936 430.886233 C585.534690 432.342776 576.547874 433.439395 567.629661 434.945560 C554.574973 437.150394 541.574485 439.676578 528.518638 441.874087 C521.302573 443.088687 513.999290 443.779605 506.773887 444.945499 C497.276328 446.478030 487.815085 448.237186 478.341178 449.915286 C470.891318 451.234927 463.347098 452.182742 456.021903 454.007022 C445.445701 456.640872 437.243247 469.902225 439.623069 482.595096 C441.983634 495.185184 455.030814 503.963443 467.184867 503.941409 C508.683250 503.866153 550.181846 503.912601 591.680381 503.912601 C598.997031 503.912601 598.928184 503.904788 598.125144 510.960879 C597.649497 515.139773 597.216819 519.345401 597.164207 523.544009 C597.118552 527.194949 595.868979 528.952151 592.004233 528.947269 C548.672507 528.892459 505.331382 529.436893 462.013328 528.665225 C443.631248 528.337710 429.606986 518.739871 419.968040 502.636844 C415.312522 494.859317 413.188987 486.624209 413.224784 477.959415 C413.297477 460.381717 420.980552 446.493289 435.268088 436.219241 C442.933463 430.707095 442.461509 431.779117 439.751639 422.268558 C431.951224 394.891971 423.281180 367.764651 415.200156 340.466128 C407.020865 312.835574 399.097190 285.128970 391.136161 257.434238 C384.070640 232.854617 377.177421 208.225314 370.066367 183.658969 C367.020499 173.136569 359.405753 167.914401 348.940452 165.854129 C336.662986 163.437167 324.434928 160.735904 312.264518 157.827090 C308.042716 156.818027 302.196525 150.941287 303.003745 145.151523 C303.882285 138.850131 308.097770 133.128360 314.239829 133.120822 C319.490867 133.114383 324.768119 134.802005 329.991294 135.935977 C340.374869 138.190311 350.758109 140.459293 361.087577 142.946078 C371.551444 145.465213 379.419608 151.774325 386.165366 160.019260 C394.625388 170.359470 395.988029 183.322757 400.064261 195.284915 C401.611747 199.826144 402.485892 204.612247 404.245963 209.057468 C404.890037 210.684115 407.161490 212.673221 408.774100 212.750400 C421.788413 213.373080 434.822349 213.855929 447.850760 213.868075 C538.347495 213.952426 628.844565 214.000095 719.340720 213.757022 C727.113547 213.736148 734.646506 212.835300 741.787314 216.880618 C752.173179 222.764224 756.377219 231.324618 754.087668 242.901614 C750.128867 262.918796 746.123984 282.927005 742.091941 302.929629 C738.124473 322.611880 734.049949 342.272708 730.131797 361.964725 C729.082236 367.239810 728.432456 372.594485 727.349082 378.162601 M659.599082 393.912540 C668.546897 392.579227 677.469382 391.030582 686.450034 389.977115 C694.397971 389.044803 699.125388 386.038577 700.982078 378.064395 C704.077537 364.769839 706.343833 351.284549 709.120322 337.913028 C713.036216 319.053897 717.086814 300.222720 721.103477 281.384647 C723.747275 268.985385 726.496482 256.608096 729.057212 244.191806 C729.759299 240.787540 728.902000 238.815799 724.508811 238.820895 C622.516562 238.939517 520.524009 238.942477 418.531791 238.815982 C413.890372 238.810214 413.301841 241.287051 414.185874 244.332858 C420.355094 265.588687 426.837089 286.753482 433.079246 307.988467 C439.501792 329.837100 445.694694 351.753177 452.123221 373.600040 C456.665214 389.035770 461.905356 404.285953 465.836387 419.870547 C467.168967 425.153628 469.810172 425.203189 473.447471 424.842410 C476.870170 424.502933 480.217460 423.467654 483.628562 422.934268 C492.565513 421.536563 501.536521 420.351626 510.461875 418.886172 C521.983604 416.994449 533.469321 414.883975 544.980247 412.924563 C550.756064 411.941470 556.560508 411.126773 562.339316 410.160525 C570.590720 408.780826 578.819114 407.260440 587.078818 405.934146 C594.291465 404.776004 601.548606 403.894656 608.759666 402.727603 C620.298911 400.860293 631.823508 398.898929 643.339683 396.893863 C648.444480 396.005069 653.513694 394.912601 659.599082 393.912540 z"/><path class="selected"  fill="#000000" opacity="1.000000" stroke="none" 
 	d="
M652.099082 457.912601 C662.469382 449.730777 673.568992 443.864444 686.063254 440.991519 C692.376487 439.539920 698.861838 438.202396 705.299460 438.045596 C724.767844 437.571231 742.331382 443.343692 758.408958 454.561099 C776.897849 467.460879 787.991050 485.463199 792.736045 506.648685 C796.884727 525.171756 794.871116 543.722598 786.321677 561.599368 C777.478293 580.090884 764.098044 593.478824 746.433555 602.979739 C738.303855 607.352237 729.537070 609.772830 720.257529 611.064761 C703.519370 613.395022 687.465415 611.378787 672.134604 604.753116 C665.901938 602.059451 659.859946 598.249087 654.759788 593.774356 C647.742393 587.617374 641.073813 580.829532 635.396750 573.435916 C627.923911 563.703433 624.645103 551.925479 622.081016 540.014590 C617.576316 519.089664 622.313010 499.544559 632.433005 481.507999 C637.319114 472.799808 645.118735 465.726321 652.099082 457.912601 M672.099082 540.412601 C681.187522 547.834415 690.246177 555.293277 699.390769 562.645267 C701.127158 564.041324 702.887412 564.121341 704.584128 561.998050 C710.609397 554.458377 716.959373 547.174808 722.885764 539.560245 C732.564414 527.124393 741.887534 514.410709 751.645896 502.039126 C753.691978 499.445132 753.190146 498.127139 751.116294 496.427676 C747.383323 493.368716 743.815635 490.073978 739.868796 487.322574 C737.355002 485.570193 734.277488 484.550540 731.746848 487.765140 C727.197166 493.544559 722.673667 499.344852 718.092673 505.099368 C712.301475 512.374148 706.474387 519.620486 700.639182 526.860049 C699.020591 528.868167 697.598228 529.832400 695.034507 527.511539 C690.907554 523.775577 686.172385 520.721011 681.895652 517.138064 C678.170554 514.017215 675.859031 513.963260 672.923606 517.601626 C670.413474 520.713016 667.785911 523.754947 665.571677 527.068973 C664.472495 528.714175 663.047080 531.755130 663.743735 532.684329 C665.842307 535.483523 668.909629 537.556399 672.099082 540.412601 z"/><path class="selected"  fill="#000000" opacity="1.000000" stroke="none" 
 	d="
M479.849082 543.162601 C496.741416 546.818545 509.842063 560.816592 508.932151 578.564029 C508.064902 595.479373 498.904197 606.298221 482.050681 610.851504 C461.746665 616.337039 443.427238 601.633304 440.307548 582.814944 C437.191672 564.019900 449.448752 547.201724 468.532615 543.953738 C472.174979 543.333804 475.907920 543.245914 479.849082 543.162601 M469.599082 589.912601 C475.763755 592.373843 480.728904 590.886111 485.305259 585.206302 C487.624686 582.327701 487.878898 573.049625 485.720939 570.034427 C482.147117 565.040958 473.697806 563.044803 468.273856 565.912601 C462.186027 569.131412 459.302299 576.222476 462.243033 582.546695 C463.558463 585.375491 466.432426 587.479556 469.599082 589.912601 z"/><path class="selected"  fill="#000000" opacity="1.000000" stroke="none" 
 	d="
M1271.099082 176.912601 C1281.781821 171.729892 1291.984824 166.586703 1302.139243 161.349155 C1307.912314 158.371493 1313.546592 155.121921 1319.347983 152.202884 C1329.538169 147.075687 1339.643027 141.989688 1350.666953 138.454593 C1362.307700 134.721652 1373.996909 134.156680 1385.637534 135.176242 C1398.322104 136.287265 1410.272300 141.109836 1421.654380 146.967593 C1437.447959 155.095828 1453.233481 163.240207 1469.039268 171.344913 C1483.329429 178.672427 1497.683799 185.876315 1511.933188 193.282199 C1524.967124 200.056430 1537.671226 207.509494 1550.940391 213.774570 C1563.705649 219.801730 1575.918662 226.643161 1585.919639 236.512393 C1594.102378 244.587222 1600.946738 254.075809 1604.982261 265.016421 C1607.603477 272.122958 1610.609946 279.598361 1610.836021 286.988345 C1611.790366 318.154666 1611.837852 349.350528 1612.072471 380.536624 C1612.216514 399.696170 1612.284385 418.859988 1612.044639 438.017581 C1611.824790 455.563785 1606.900107 471.395267 1596.741416 486.210635 C1586.995566 500.424014 1574.595054 510.500613 1559.518027 518.046512 C1545.015952 525.304629 1530.641318 532.818545 1516.243979 540.284549 C1504.992759 546.119144 1493.813560 552.092776 1482.563437 557.929751 C1472.831382 562.978885 1463.051597 567.936160 1453.280234 572.908938 C1442.685752 578.300540 1432.003989 583.525821 1421.492393 589.073794 C1409.051475 595.640018 1396.239219 600.109927 1381.924644 601.163272 C1368.312095 602.164981 1355.392661 600.644961 1343.095786 595.250735 C1330.536948 589.741641 1318.294639 583.489322 1306.044761 577.302859 C1291.427329 569.920596 1276.973838 562.214419 1262.403037 554.738772 C1250.041831 548.396793 1237.516196 542.368960 1225.241294 535.866397 C1209.237144 527.388553 1193.211875 518.917178 1177.568320 509.803409 C1165.495933 502.770328 1156.921592 492.123294 1150.058921 480.002811 C1143.627769 468.644412 1139.290732 456.647159 1139.157432 443.548770 C1138.675498 396.203372 1138.170127 348.855228 1138.216392 301.508670 C1138.237510 279.800906 1145.088218 260.239261 1159.128257 243.198855 C1167.535972 232.994296 1177.728843 225.416049 1189.214561 219.335269 C1202.322593 212.395572 1215.540000 205.662845 1228.694419 198.810489 C1242.672080 191.529330 1256.631675 184.213412 1271.099082 176.912601 M1521.599082 506.912601 C1532.580771 501.245914 1543.917563 496.161197 1554.439658 489.741153 C1564.048911 483.878116 1571.720542 475.755923 1577.204551 465.530765 C1584.051108 452.765262 1585.067832 439.088626 1585.083579 425.135806 C1585.127891 385.986392 1585.141440 346.836673 1585.054404 307.687442 C1585.040977 301.660831 1584.659019 295.612491 1584.048423 289.614810 C1582.998862 279.305423 1579.783042 277.084994 1572.483848 280.886417 C1556.321372 289.303958 1540.106284 297.620853 1523.872153 305.899539 C1510.673179 312.630313 1497.362021 319.142276 1484.198081 325.939822 C1468.954673 333.811221 1453.874351 341.998721 1438.619224 349.846744 C1422.562705 358.106998 1406.385337 366.132083 1390.256187 374.251102 C1386.845420 375.967959 1384.981040 378.178653 1384.992148 382.526858 C1385.149131 444.166080 1385.099082 505.805850 1385.099082 567.445438 C1385.099082 568.278445 1385.096396 569.111392 1385.099570 569.944400 C1385.109824 572.606448 1386.419639 573.429263 1388.887900 572.625613 C1390.356406 572.147403 1391.895835 571.827823 1393.289634 571.188724 C1405.051597 565.795840 1416.946494 560.662112 1428.495078 554.842349 C1448.498374 544.761844 1468.288291 534.257571 1488.155601 523.907840 C1498.982871 518.267398 1509.785361 512.579227 1521.599082 506.912601 M1253.099082 319.412601 C1243.367759 314.347964 1233.669883 309.217593 1223.894858 304.238834 C1215.648643 300.038760 1207.289023 296.062076 1199.023643 291.898929 C1191.162681 287.939395 1183.298179 283.978641 1175.556602 279.793887 C1171.925498 277.831058 1169.856528 279.080661 1169.170493 282.570560 C1167.918906 288.936954 1166.271079 295.383243 1166.232749 301.804813 C1165.975791 344.949222 1166.015342 388.096255 1166.188315 431.241458 C1166.214561 437.797916 1166.864585 444.469119 1168.213706 450.879397 C1171.316367 465.621158 1179.286704 477.662051 1191.807578 485.860965 C1202.672202 492.975345 1214.293174 498.983462 1225.809287 505.044192 C1249.455039 517.488345 1273.234580 529.679080 1297.001548 541.891421 C1305.231772 546.120364 1313.718101 549.863101 1321.856650 554.255618 C1334.643882 561.157413 1347.080161 568.573123 1361.465171 572.161563 C1366.276938 573.361819 1366.101768 571.735843 1366.101523 568.524051 C1366.098228 506.054080 1366.121299 443.583987 1365.983359 381.114383 C1365.979575 379.378543 1364.676841 377.073917 1363.250937 376.033511 C1360.407554 373.958804 1357.089561 372.514041 1353.910239 370.923953 C1340.526084 364.230533 1327.067588 357.683597 1313.735801 350.888126 C1293.646689 340.648379 1273.640464 330.245914 1253.099082 319.412601 M1360.599082 352.912601 C1364.102744 354.912601 1367.421348 357.458499 1371.171836 358.730777 C1373.911460 359.660037 1377.731040 359.948978 1380.188193 358.737125 C1392.245322 352.790469 1403.950767 346.135989 1415.889243 339.941226 C1429.861411 332.691165 1443.965781 325.696109 1457.977622 318.521915 C1486.972983 303.676089 1515.938682 288.772098 1544.931602 273.921786 C1552.208823 270.194308 1559.502402 266.493228 1566.876426 262.963565 C1569.168296 261.866519 1570.104331 260.565799 1568.257407 258.658298 C1565.293906 255.597537 1562.458457 252.081027 1558.844687 250.038303 C1542.415610 240.751468 1525.767295 231.848880 1509.128379 222.938174 C1500.145957 218.127872 1490.996787 213.630069 1481.977622 208.887057 C1478.470298 207.042605 1475.000205 206.266482 1471.331260 208.191104 C1462.846396 212.642062 1454.404014 217.174319 1445.903159 221.594668 C1428.639487 230.571719 1411.391074 239.579684 1394.054526 248.414523 C1381.689170 254.716159 1369.115317 260.610446 1356.772422 266.954684 C1345.084556 272.962283 1333.640464 279.442844 1321.972617 285.490848 C1307.861655 292.805240 1293.614097 299.856143 1279.471274 307.109744 C1278.178184 307.772891 1277.215293 309.079654 1276.099082 310.087588 C1277.277671 310.707828 1278.446616 311.347354 1279.636313 311.945376 C1293.696616 319.012637 1307.802573 325.990848 1321.810264 333.160892 C1334.461875 339.636722 1347.007041 346.320499 1360.599082 352.912601 M1424.099082 179.412570 C1420.213462 177.526919 1416.159873 175.920718 1412.472495 173.705173 C1399.610312 165.976962 1386.156943 161.586886 1370.760215 162.674075 C1361.833335 163.304416 1353.746787 165.816379 1346.068442 169.608676 C1327.926230 178.569125 1310.076621 188.121402 1292.095786 197.409457 C1278.372886 204.498050 1264.656699 211.600467 1250.889487 218.602267 C1234.103965 227.139011 1217.118369 235.297916 1200.533896 244.205875 C1194.580405 247.403689 1189.291709 252.020267 1184.171958 256.525943 C1180.721152 259.562869 1181.365806 261.643985 1185.355918 263.662845 C1198.716270 270.422916 1212.120811 277.096408 1225.440879 283.934756 C1235.479941 289.088687 1245.332603 294.613589 1255.467368 299.566043 C1257.469199 300.544192 1260.781943 300.491031 1262.802817 299.505008 C1274.047202 294.018924 1285.018027 287.976138 1296.198813 282.355228 C1313.979819 273.416049 1331.928672 264.808932 1349.663901 255.781100 C1365.916953 247.507785 1381.944053 238.791843 1398.140952 230.406528 C1410.203696 224.161594 1422.332603 218.039615 1434.519980 212.041629 C1442.397300 208.164920 1450.441733 204.628757 1458.383506 200.881076 C1459.062949 200.560458 1460.108726 199.514041 1459.997397 199.284976 C1459.561729 198.389407 1458.878257 197.398044 1458.021812 196.956332 C1446.907432 191.223666 1435.747520 185.579257 1424.099082 179.412570 z"/><path class="selected"  fill="#000000" opacity="1.000000" stroke="none" 
 	d="
M1451.349082 988.662601 C1464.647788 995.628055 1477.680503 1002.375125 1490.748984 1009.051639 C1512.476890 1020.152347 1534.264731 1031.136111 1555.955039 1042.309329 C1568.940757 1048.998538 1581.477988 1056.530521 1590.693564 1068.148563 C1600.057944 1079.954105 1608.576499 1092.444705 1610.029990 1108.078128 C1611.054526 1119.099856 1611.945029 1130.178958 1612.007529 1141.237430 C1612.237998 1182.061893 1612.115195 1222.888431 1612.092979 1263.714114 C1612.079917 1287.528812 1603.044639 1307.513309 1586.867515 1324.788577 C1575.651328 1336.765872 1561.354697 1343.660647 1547.161094 1350.929690 C1521.998618 1363.816287 1496.897544 1376.822635 1471.754478 1389.747195 C1459.255698 1396.172000 1446.765708 1402.616580 1434.187217 1408.882815 C1424.942954 1413.487918 1415.721641 1418.201175 1406.202476 1422.177493 C1393.081870 1427.657840 1379.075400 1429.461795 1365.114219 1427.693851 C1351.880332 1426.017947 1339.399253 1421.076785 1327.500937 1414.853519 C1311.759482 1406.620120 1295.940635 1398.534183 1280.121421 1390.450687 C1265.960288 1383.214358 1251.705161 1376.160037 1237.581504 1368.851688 C1225.631309 1362.667728 1213.809409 1356.236087 1201.931602 1349.912234 C1194.558921 1345.986941 1186.910605 1342.495364 1179.879233 1338.032107 C1168.111045 1330.561771 1158.412681 1320.843753 1151.372520 1308.676761 C1144.310508 1296.472415 1139.211875 1283.661014 1139.088096 1269.270022 C1138.788413 1234.414188 1138.401694 1199.559329 1138.115562 1164.703494 C1138.013022 1152.206668 1137.701377 1139.692142 1138.207847 1127.214969 C1138.745322 1113.972537 1140.770103 1100.965091 1146.672446 1088.766238 C1157.576743 1066.229129 1175.626060 1051.549075 1197.660728 1040.852420 C1211.414878 1034.175540 1224.869346 1026.882449 1238.486777 1019.921756 C1250.309897 1013.877933 1262.224082 1008.010989 1274.004111 1001.885135 C1285.942710 995.676272 1297.452354 988.538699 1309.720786 983.093875 C1324.626426 976.478519 1338.304282 967.284061 1354.658164 963.557620 C1369.609702 960.150516 1384.162803 960.132938 1398.692588 964.121341 C1415.672568 968.782474 1430.647788 977.982669 1445.996055 986.274783 C1447.610679 987.147220 1449.394004 987.707522 1451.349082 988.662601 M1404.099082 1193.412723 C1399.054771 1196.123660 1394.090903 1199.002078 1388.934531 1201.479739 C1386.051719 1202.864993 1385.025596 1204.633670 1385.030479 1207.857303 C1385.123130 1269.851199 1385.097495 1331.845096 1385.102012 1393.839114 C1385.102378 1399.296756 1386.021323 1400.036136 1391.501792 1397.939578 C1398.976646 1395.080203 1406.533896 1392.299686 1413.670371 1388.717410 C1434.382041 1378.321048 1454.878989 1367.497806 1475.505088 1356.929446 C1487.595176 1350.734500 1499.812827 1344.788089 1511.896567 1338.580936 C1524.546836 1332.082767 1537.302939 1325.752322 1549.647910 1318.709231 C1561.708213 1311.828494 1571.937827 1302.897220 1578.158286 1289.945071 C1584.092124 1277.590213 1585.113730 1264.502078 1585.106284 1251.148685 C1585.085532 1213.985599 1585.082725 1176.822513 1585.109824 1139.659427 C1585.117026 1129.632571 1585.006919 1119.665774 1582.175742 1109.882938 C1580.715903 1104.838870 1579.089438 1103.651736 1574.564780 1105.963870 C1562.871421 1111.939578 1551.200889 1117.960086 1539.531943 1123.983401 C1514.406333 1136.952762 1489.306235 1149.972049 1464.157798 1162.897098 C1451.661704 1169.319583 1439.085654 1175.586551 1426.538657 1181.909793 C1419.232749 1185.591800 1411.912803 1189.245975 1404.099082 1193.412723 M1333.599082 1186.912601 C1331.537314 1185.850955 1329.475913 1184.788699 1327.413901 1183.727420 C1302.277427 1170.789188 1277.155967 1157.821658 1251.998130 1144.924808 C1239.633018 1138.586185 1227.171836 1132.434451 1214.806113 1126.096561 C1201.604453 1119.330325 1188.451865 1112.467654 1175.305503 1105.594119 C1171.927817 1103.828128 1169.817100 1105.307254 1169.186973 1108.406741 C1167.894492 1114.765384 1166.228110 1121.226565 1166.238364 1127.643069 C1166.313193 1174.498904 1166.646934 1221.355228 1167.156577 1268.208621 C1167.366172 1287.482547 1177.066978 1302.431888 1192.348960 1312.619876 C1207.361655 1322.628665 1223.870811 1330.432254 1239.908042 1338.851810 C1252.062095 1345.232791 1264.565635 1350.944705 1276.800864 1357.176150 C1284.936973 1361.319827 1292.797202 1366.004031 1300.919028 1370.177127 C1312.036582 1375.889407 1323.226646 1381.468265 1334.496787 1386.872806 C1342.966514 1390.934207 1351.526694 1394.836185 1360.212241 1398.406253 C1364.683433 1400.244266 1366.093223 1398.954471 1366.093833 1394.131595 C1366.101768 1332.307010 1366.082114 1270.482425 1366.140464 1208.657840 C1366.144004 1204.882693 1364.857871 1202.562503 1361.334800 1200.832645 C1352.318198 1196.405765 1343.497886 1191.579227 1333.599082 1186.912601 M1463.099082 1142.412601 C1471.575767 1137.935916 1480.000449 1133.356814 1488.544517 1129.012820 C1496.239829 1125.100345 1504.150352 1121.608279 1511.817954 1117.644534 C1530.076255 1108.205936 1548.095908 1098.288089 1566.563682 1089.284671 C1570.962974 1087.140018 1569.746055 1085.809817 1567.570029 1084.006595 C1561.926719 1079.330081 1556.479453 1074.112308 1550.110801 1070.671146 C1529.054282 1059.293704 1507.508018 1048.824710 1486.405967 1037.528323 C1479.456138 1033.807986 1474.269614 1033.209598 1466.622153 1037.385745 C1440.899985 1051.432864 1414.398398 1064.049930 1388.237998 1077.298953 C1373.771323 1084.625613 1359.372153 1092.086307 1344.976279 1099.551395 C1332.354941 1106.096194 1319.810508 1112.790286 1307.174888 1119.307132 C1297.848716 1124.117068 1288.413291 1128.715335 1279.074302 1133.501224 C1277.930747 1134.087283 1277.083701 1135.251712 1276.099082 1136.147952 C1277.076743 1136.880496 1277.971641 1137.777347 1279.045859 1138.318240 C1284.831016 1141.231814 1290.691489 1143.995975 1296.469687 1146.923099 C1322.084434 1159.898929 1347.672690 1172.927371 1373.308188 1185.862063 C1374.394858 1186.410281 1376.096641 1186.744754 1377.102744 1186.284427 C1383.691733 1183.270511 1390.220542 1180.113162 1396.671470 1176.812015 C1418.669150 1165.554813 1440.626304 1154.218631 1463.099082 1142.412601 M1335.599082 1000.912601 C1332.400474 1002.444461 1329.145713 1003.869876 1326.013022 1005.526492 C1310.704185 1013.621219 1295.488120 1021.893680 1280.120933 1029.875613 C1268.210410 1036.062015 1256.062095 1041.789920 1244.134482 1047.944461 C1230.260947 1055.103397 1216.651328 1062.786380 1202.653525 1069.686648 C1195.309897 1073.306644 1189.214194 1078.171634 1183.518394 1083.876102 C1180.671836 1086.727054 1182.438804 1088.626590 1184.556724 1089.726565 C1192.761680 1093.989139 1201.221519 1097.758060 1209.469810 1101.940433 C1223.382041 1108.994998 1237.210166 1116.215457 1251.063926 1123.385013 C1255.611411 1125.738528 1259.820884 1128.603397 1265.330039 1125.010135 C1270.622642 1121.558230 1276.380942 1118.793826 1282.040366 1115.936648 C1294.985068 1109.401248 1308.064048 1103.128909 1320.960044 1096.499881 C1337.177817 1088.163333 1353.206382 1079.458377 1369.427451 1071.128543 C1390.983848 1060.058841 1412.631553 1049.166019 1434.273398 1038.263797 C1441.983726 1034.379764 1449.792441 1030.691043 1457.555747 1026.912112 C1458.404868 1026.499026 1459.251304 1026.080569 1460.099082 1025.664554 C1459.390830 1024.747195 1458.874229 1023.473392 1457.942100 1022.972537 C1453.050254 1020.342532 1448.015952 1017.979251 1443.100181 1015.392215 C1431.470908 1009.271731 1420.029014 1002.774417 1408.236411 996.990237 C1393.821982 989.919925 1378.485923 985.966800 1362.589194 990.147830 C1353.603721 992.511111 1345.241782 997.245975 1335.599082 1000.912601 z"/><path class="selected"  fill="#000000" opacity="1.000000" stroke="none" 
 	d="
M485.099082 263.912601 C488.765769 276.048312 492.565391 287.644290 496.057700 299.332156 C498.941733 308.984256 501.365134 318.773013 504.164939 328.451358 C509.410422 346.584048 515.064109 364.604739 519.949363 382.832339 C521.722129 389.446658 517.722251 397.647525 510.329917 399.856082 C503.484397 401.901309 495.267661 395.710391 493.053123 387.716556 C488.879081 372.649539 484.403800 357.666263 480.106376 342.633121 C474.742789 323.870303 469.409659 305.098697 464.114127 286.316592 C462.681510 281.235477 461.115439 276.159762 460.180594 270.978702 C459.052115 264.724460 462.000114 260.073581 467.422233 257.169070 C471.367454 255.055667 479.097526 257.432712 483.332267 261.646152 C483.922599 262.233554 484.510215 262.823733 485.099082 263.912601 z"/><path class="selected"  fill="#000000" opacity="1.000000" stroke="none" 
 	d="
M526.099082 256.912601 C539.583884 256.912601 541.754050 258.997378 545.182822 271.856448 C548.809775 285.458804 553.041953 298.901858 557.112632 312.383365 C563.057334 332.071658 569.299644 351.673648 574.920615 371.453067 C576.070579 375.499698 576.735496 379.870242 573.475364 384.468143 C569.711204 389.776919 565.436729 391.817203 559.573813 390.829410 C554.123252 389.911014 550.653220 386.082522 549.156516 380.970340 C543.018943 360.006595 537.125388 338.971622 531.084250 317.979434 C529.074058 310.994144 526.877524 304.062747 524.790366 297.099429 C522.213523 288.502933 519.577292 279.922793 517.133750 271.288303 C515.852805 266.762179 519.604209 260.640414 526.099082 256.912601 z"/><path class="selected"  fill="#000000" opacity="1.000000" stroke="none" 
 	d="
M590.099082 322.912601 C586.432395 310.111636 582.716270 297.825137 579.122947 285.502811 C577.645408 280.436038 576.082603 275.352542 575.187888 270.168033 C574.076316 263.727176 578.126670 257.410220 586.223105 256.043063 C592.070518 255.055667 598.650291 257.919437 601.063621 265.898532 C606.840171 284.996951 612.444358 304.147586 618.095298 323.283938 C622.433066 337.973209 626.773765 352.661929 631.031455 367.374454 C632.324119 371.841434 627.605552 379.832889 622.732078 381.779605 C615.896934 384.509891 609.194663 382.546939 606.252280 375.661990 C602.628013 367.181522 599.918174 358.284122 597.211448 349.444949 C594.578818 340.847720 592.449485 332.096316 590.099082 322.912601 z"/><path class="selected"  fill="#000000" opacity="1.000000" stroke="none" 
 	d="
M677.349082 328.662601 C680.414207 338.727725 683.277183 348.529483 686.024558 358.363528 C687.425437 363.378055 682.080894 371.618411 676.818748 372.922610 C665.764243 375.662295 661.425559 369.517642 658.245261 359.472720 C654.279319 346.946353 650.804160 334.265018 647.096091 321.656680 C642.472983 305.936709 637.475425 290.314029 633.384727 274.457065 C631.956443 268.920535 631.940940 262.537662 637.943442 258.594272 C642.130088 255.843875 647.318076 253.650180 652.826377 258.092441 C656.001670 260.653232 658.696372 264.708835 659.933677 268.620914 C665.852744 287.335818 671.208945 306.228885 676.724509 325.070560 C677.034751 326.130252 676.982627 327.296146 677.349082 328.662601 z"/><path class="selected"  fill="#000000" opacity="1.000000" stroke="none" 
 	d="
M1291.349082 370.662601 C1294.425498 375.739139 1298.022666 380.307864 1299.759116 385.498965 C1300.650962 388.165225 1299.206870 393.317081 1297.043296 394.865909 C1294.392051 396.763675 1289.470664 397.305484 1286.261313 396.237735 C1279.145225 393.870242 1272.468589 390.167239 1265.642783 386.944827 C1252.961265 380.958194 1240.493247 374.468204 1227.575645 369.047061 C1215.720176 364.071719 1207.545005 354.403812 1207.165366 344.379703 C1206.906333 337.537784 1212.564048 333.361148 1218.886924 336.012210 C1229.959800 340.654910 1240.755454 345.955447 1251.704185 350.898563 C1259.982261 354.635989 1268.416953 358.041263 1276.591636 361.988345 C1281.612632 364.412662 1286.275474 367.579288 1291.349082 370.662601 z"/><path class="selected"  fill="#000000" opacity="1.000000" stroke="none" 
 	d="
M1282.349082 1221.662601 C1262.394248 1211.912601 1242.718223 1202.351810 1222.970054 1192.942508 C1215.026084 1189.157352 1210.314292 1182.710330 1207.537192 1174.742923 C1206.232871 1171.000369 1206.688437 1166.943851 1209.626670 1164.019168 C1212.552695 1161.106448 1216.064536 1160.422855 1220.176841 1162.395145 C1229.193320 1166.719363 1238.411094 1170.620853 1247.486411 1174.825442 C1259.640952 1180.456546 1271.685996 1186.326053 1283.878013 1191.873782 C1292.573081 1195.830447 1298.000571 1202.531253 1299.852378 1211.600833 C1300.452354 1214.539554 1298.873740 1218.576053 1297.017783 1221.214236 C1294.036582 1225.452273 1289.397910 1223.457034 1285.305137 1222.610355 C1284.394004 1222.421878 1283.500571 1222.147464 1282.349082 1221.662601 z"/></svg>